<?xml version="1.0" standalone="no"?>
<!DOCTYPE svg PUBLIC "-//W3C//DTD SVG 20010904//EN"
 "http://www.w3.org/TR/2001/REC-SVG-20010904/DTD/svg10.dtd">
<svg version="1.0" xmlns="http://www.w3.org/2000/svg"
 width="1277.000000pt" height="640.000000pt" viewBox="0 0 1277.000000 640.000000"
 preserveAspectRatio="xMidYMid meet">

<g transform="translate(0.000000,640.000000) scale(0.100000,-0.100000)"
fill="#000000" stroke="none">
<path d="M2100 6099 c-228 -23 -429 -150 -570 -359 -86 -129 -132 -275 -133
-430 -2 -217 69 -382 274 -635 83 -102 109 -145 109 -174 0 -57 17 -56 -730
-61 l-685 -5 -44 -24 c-55 -29 -63 -37 -92 -92 l-24 -44 0 -445 c0 -529 -5
-503 118 -607 15 -13 27 -27 27 -33 0 -5 -15 -27 -34 -47 -74 -83 -92 -162
-61 -267 78 -263 158 -528 169 -561 7 -22 23 -74 36 -115 12 -41 28 -93 35
-115 7 -22 20 -65 28 -95 19 -64 54 -178 72 -235 7 -22 23 -71 34 -110 34
-116 250 -837 265 -885 8 -25 24 -79 36 -120 80 -266 103 -308 200 -347 41
-16 82 -18 475 -18 417 0 431 1 475 21 86 41 113 83 182 284 49 141 72 182
101 178 27 -4 60 -52 82 -120 72 -225 122 -303 215 -344 42 -18 75 -19 443
-22 343 -3 406 -1 454 13 52 15 133 60 133 74 0 7 53 41 64 41 3 0 30 -22 59
-48 92 -83 92 -83 623 -80 442 3 461 4 504 24 64 30 103 75 141 162 65 152 64
152 406 152 342 0 331 3 399 -137 49 -102 91 -152 154 -181 32 -15 127 -17
1090 -19 1185 -3 1132 -6 1201 67 44 46 57 92 68 247 4 62 13 118 20 127 21
25 68 -1 145 -82 232 -243 298 -292 451 -339 57 -17 127 -18 1225 -18 1111 0
1168 1 1240 19 149 38 248 95 379 221 103 98 153 165 196 259 101 223 85 547
-39 761 -26 46 -116 167 -140 190 -19 17 -122 148 -150 189 -14 21 -26 49 -26
61 0 48 13 50 349 56 267 6 322 9 356 24 58 25 86 50 109 98 20 40 21 58 21
442 0 459 1 456 -85 540 -28 27 -50 53 -50 57 0 4 20 26 45 49 25 24 56 64 68
89 22 44 22 51 22 495 l0 450 -24 44 c-57 107 -63 108 -601 114 -286 3 -455 9
-473 16 -45 17 -52 48 -27 112 12 29 31 77 41 104 82 207 98 480 38 675 -87
288 -332 565 -607 687 -96 42 -173 63 -277 74 -63 6 -419 9 -970 7 l-870 -3
-45 -24 c-51 -27 -68 -47 -92 -110 -15 -41 -17 -108 -18 -666 -2 -738 -12
-1127 -29 -1170 l-13 -30 -26 32 c-15 17 -35 53 -45 80 -32 87 -124 364 -196
593 -40 124 -78 243 -86 265 -7 22 -30 94 -50 160 -21 66 -43 138 -51 160 -7
22 -38 121 -69 220 -115 364 -132 403 -204 451 -26 17 -63 29 -110 35 -105 15
-1406 7 -1452 -9 -82 -28 -133 -96 -200 -267 -27 -70 -65 -135 -79 -135 -14 0
-29 65 -39 165 -15 164 -64 227 -192 245 -78 12 -3561 11 -3669 -1z m1358
-170 c23 -26 55 -52 71 -58 32 -14 657 -12 678 2 9 6 2 19 -26 48 -32 32 -47
39 -77 39 -20 0 -34 3 -31 7 8 7 1717 15 1717 7 0 -2 -25 -30 -56 -60 -50 -50
-55 -60 -50 -86 3 -17 6 -48 6 -69 l0 -38 45 30 c24 17 49 38 55 47 6 12 9
-19 10 -101 0 -76 -4 -116 -10 -112 -5 3 -25 -5 -43 -19 -19 -15 -39 -26 -45
-26 -9 0 -12 -36 -12 -122 1 -113 2 -121 15 -96 8 14 31 36 50 48 27 17 35 29
37 53 1 18 5 -31 8 -108 3 -77 3 -144 1 -149 -2 -4 -29 20 -60 54 l-56 61
-162 -3 c-89 -2 -164 -6 -168 -9 -3 -4 17 -29 46 -57 l52 -51 -38 -7 c-20 -3
-66 -4 -102 -1 -62 5 -68 7 -117 55 -28 28 -64 56 -79 61 -16 6 -109 11 -218
11 l-189 0 2 -287 c2 -159 7 -287 11 -285 4 1 23 -13 41 -33 18 -19 38 -35 43
-35 16 0 23 -204 14 -400 -4 -96 -8 -154 -9 -127 -1 26 -6 47 -11 47 -17 0
-71 61 -71 81 0 10 -4 19 -10 19 -6 0 -11 -136 -12 -372 l-3 -373 -150 -6
c-206 -9 -222 -10 -208 -16 7 -2 33 -26 59 -51 l46 -47 -36 -3 c-31 -3 -41 3
-89 53 l-54 57 -115 5 -114 6 -50 -61 c-27 -33 -55 -63 -61 -66 -10 -4 -13 33
-13 167 0 95 3 201 7 237 6 62 8 67 53 105 47 39 48 42 55 113 4 40 4 129 0
198 l-7 125 -37 -42 c-20 -23 -41 -53 -47 -66 -12 -29 -24 308 -24 702 l0 230
55 55 c30 30 55 58 55 63 0 4 -173 7 -385 7 -212 0 -385 -4 -385 -9 0 -4 25
-32 55 -60 30 -29 55 -54 55 -57 0 -9 -346 -3 -360 6 -8 5 -11 10 -7 10 11 0
-91 93 -111 102 -10 4 -64 7 -122 7 -79 0 -113 -4 -139 -17 -43 -21 -49 -37
-19 -49 47 -17 115 -67 126 -92 6 -14 26 -42 44 -62 88 -96 157 -180 173 -209
7 -12 4 -11 -11 2 -13 11 -42 17 -90 20 l-72 3 18 -25 c46 -64 64 -73 143 -71
l73 2 59 -63 c33 -35 71 -78 85 -96 14 -19 32 -41 41 -50 100 -107 172 -241
190 -352 10 -68 10 -214 -1 -223 -3 -2 -26 -2 -52 1 -36 3 -48 8 -49 21 -1 9
-5 -2 -10 -24 -18 -80 -43 -151 -71 -198 -15 -27 -24 -46 -18 -42 5 3 27 -8
49 -26 l38 -33 -21 -35 c-35 -62 -137 -154 -206 -189 -36 -17 -72 -32 -80 -32
-8 0 -34 18 -57 41 -37 36 -44 39 -64 29 -14 -8 -43 -10 -81 -6 -33 4 -243 4
-467 0 l-407 -7 53 -52 54 -52 -64 -7 c-34 -3 -85 -3 -113 0 -42 6 -56 14
-102 59 l-52 53 -108 2 c-59 2 -138 2 -175 1 l-68 -1 53 -47 c29 -25 54 -49
56 -53 4 -11 -109 -19 -166 -11 -46 7 -58 14 -102 60 l-50 53 -315 5 -315 6
-44 -48 c-25 -26 -42 -53 -39 -61 4 -10 -3 -14 -21 -14 -26 0 -26 1 -25 73 1
69 14 206 18 179 1 -8 11 -6 38 8 20 10 40 17 44 14 18 -11 23 54 21 270 -2
156 -6 232 -13 237 -6 4 -29 -3 -50 -14 -38 -20 -39 -23 -41 -76 -1 -31 -4 5
-7 79 -4 85 -2 138 4 142 23 17 729 3 719 -14 -3 -5 16 -31 42 -58 l48 -50 69
0 70 0 -49 48 c-27 27 -57 53 -68 59 -23 13 211 25 316 16 69 -6 70 -6 125
-64 46 -49 62 -59 100 -65 24 -3 54 -2 65 3 19 8 15 13 -41 65 l-61 57 48 3
c106 7 322 -3 322 -15 0 -14 91 -107 105 -107 40 0 86 24 104 54 25 40 26 71
6 119 -31 74 -60 93 -158 102 -57 5 -68 15 -252 234 -16 20 -33 38 -36 41 -3
3 -37 46 -75 95 -75 96 -126 173 -106 161 15 -9 116 -35 120 -31 5 5 -17 45
-45 82 -18 23 -35 33 -66 38 -61 9 -77 15 -77 27 0 5 -6 24 -14 41 -34 76 -44
187 -25 279 19 95 98 253 155 315 40 42 44 44 59 29 32 -32 62 -30 117 7 29
19 78 45 109 58 l56 24 -38 30 c-21 17 -38 33 -39 37 0 3 14 10 32 13 18 4 39
11 48 16 40 23 177 28 750 26 l615 -2 43 -46z m2872 31 c0 -4 8 -16 18 -28 9
-11 26 -33 37 -47 l20 -28 185 5 c102 3 193 9 203 13 15 6 12 12 -23 46 -22
22 -50 39 -62 39 -12 0 -19 3 -16 6 8 7 1038 15 1050 8 5 -3 -6 -24 -25 -47
-49 -61 -48 -59 -26 -118 11 -30 24 -65 29 -79 22 -69 31 -78 81 -85 26 -4 52
-4 56 -2 5 3 14 -6 20 -21 24 -54 81 -238 91 -288 l9 -52 -26 8 c-57 18 -91
20 -91 5 0 -7 5 -17 10 -20 6 -3 10 -15 10 -26 0 -11 9 -48 20 -82 11 -34 29
-91 40 -127 11 -36 43 -134 70 -218 28 -85 50 -160 50 -168 0 -8 4 -14 9 -14
5 0 12 -17 17 -37 4 -23 9 -31 11 -20 3 12 14 17 38 17 18 0 40 3 49 6 11 4
17 -4 22 -30 3 -20 10 -36 15 -36 5 0 9 -6 9 -12 0 -13 74 -255 90 -293 5 -11
18 -54 30 -95 12 -41 28 -93 35 -115 7 -22 23 -74 35 -115 12 -41 27 -93 35
-115 34 -102 56 -186 52 -198 -4 -7 -6 -6 -6 4 -1 18 -29 29 -73 29 -14 0 -29
6 -32 13 -3 6 -3 -8 0 -33 4 -25 10 -46 15 -48 16 -6 10 -40 -8 -48 -10 -4
-131 -10 -270 -12 l-251 -4 31 -44 c17 -24 34 -44 39 -44 4 0 8 -4 8 -10 0 -5
-24 -10 -54 -10 -61 0 -75 9 -103 70 -17 38 -20 39 -65 40 -43 0 -49 -3 -75
-37 -15 -21 -31 -39 -35 -41 -5 -2 -8 -10 -8 -18 0 -8 -6 -14 -14 -14 -9 0
-18 17 -24 43 -6 23 -18 62 -28 87 -52 137 -72 206 -63 223 5 9 14 17 19 17 6
0 10 5 10 11 0 6 11 24 25 41 14 16 25 34 25 40 0 12 -670 5 -707 -7 -15 -5
-19 -11 -12 -19 28 -33 59 -89 54 -97 -8 -12 -151 -12 -174 0 -9 5 -27 32 -40
60 -27 56 -27 56 -157 66 -97 8 -107 0 -67 -53 58 -75 62 -85 50 -125 -7 -20
-15 -37 -18 -37 -4 0 -14 15 -24 33 -49 95 -46 90 -59 70 -7 -10 -15 -27 -19
-38 -9 -34 -64 -182 -71 -194 -4 -6 -34 -11 -66 -11 -92 0 -97 -5 -55 -55 19
-24 35 -45 35 -48 0 -12 -52 -16 -122 -10 l-77 6 -33 48 c-18 26 -42 50 -53
53 -11 3 -90 6 -175 6 -85 0 -160 4 -167 8 -8 5 -7 23 8 67 11 33 24 68 29 77
5 9 13 35 16 58 4 22 10 40 14 40 8 0 32 101 26 108 -3 2 -8 -12 -11 -31 -9
-44 -32 -56 -41 -22 -13 53 -50 21 -70 -58 -3 -15 -8 -26 -11 -24 -5 6 18 99
28 112 4 6 11 28 15 50 4 22 10 42 13 45 4 3 15 32 24 65 10 33 24 80 32 105
43 138 89 291 101 335 8 28 18 59 23 70 17 38 67 188 207 625 47 146 92 281
99 300 7 19 45 134 85 255 85 264 98 295 116 288 8 -3 14 -8 14 -13z m2514
-52 l50 -48 150 0 c168 0 236 11 212 35 -8 8 -23 26 -34 39 -10 13 -32 26 -48
28 -16 2 95 6 246 10 336 7 1173 3 1221 -7 86 -17 299 -108 299 -127 0 -5 6
-8 14 -8 20 0 173 -146 214 -204 l33 -46 -23 -9 c-13 -5 -33 -13 -45 -17 -23
-9 -23 -9 18 -69 22 -33 52 -84 66 -112 l24 -53 39 20 39 20 12 -21 c47 -90
66 -323 33 -425 -28 -89 -29 -89 -83 -86 l-48 4 -36 -74 c-46 -91 -51 -99
-108 -173 -79 -104 -125 -144 -242 -211 l-69 -39 118 -5 c79 -4 119 -10 122
-18 3 -9 161 -12 689 -12 l686 0 -61 -58 c-34 -31 -62 -64 -62 -71 0 -8 26
-39 58 -70 l57 -55 4 -118 c2 -65 1 -125 -3 -133 -4 -11 -18 -2 -52 35 -34 37
-50 47 -56 38 -4 -7 -8 -87 -8 -179 0 -115 -4 -169 -12 -177 -9 -9 -109 -12
-383 -13 -203 -1 -383 -5 -400 -9 -16 -4 -25 -8 -20 -9 6 -1 27 -17 48 -36 21
-19 43 -35 50 -35 8 0 8 -3 0 -11 -8 -8 -63 -12 -157 -13 l-145 -1 -50 55 -51
55 -190 3 c-104 2 -190 0 -190 -5 0 -4 19 -27 41 -51 23 -23 39 -46 35 -50
-16 -15 -211 -7 -281 13 -99 27 -102 32 -47 84 l46 44 -23 16 c-12 9 -45 37
-74 63 -54 50 -67 56 -67 36 0 -7 -15 -28 -32 -47 l-31 -34 -81 84 c-87 91
-135 144 -231 253 -64 73 -118 133 -207 232 -40 44 -58 74 -67 109 -7 28 -16
54 -20 60 -5 5 -11 28 -14 50 -4 22 -4 34 0 26 4 -11 7 -11 13 0 7 10 11 10
24 0 23 -19 20 -8 -6 21 -13 14 -38 44 -57 67 -19 22 -37 38 -40 34 -11 -15 3
-438 15 -438 5 0 25 -12 43 -27 27 -24 34 -38 43 -95 13 -85 5 -380 -11 -396
-8 -8 -11 -8 -11 0 0 6 -16 28 -35 49 -19 20 -36 44 -37 53 -1 9 -4 -20 -7
-64 l-6 -80 -192 -3 c-106 -1 -193 -6 -193 -11 0 -5 20 -26 45 -47 25 -22 45
-42 45 -46 0 -5 -42 -8 -94 -8 l-93 0 -48 52 -49 51 -93 6 -93 6 -57 -57 c-32
-32 -60 -58 -63 -58 -5 0 -6 808 -2 1555 l2 400 48 -50 c27 -28 54 -60 60 -70
9 -17 11 -9 12 45 l0 64 -61 63 -62 62 -5 244 c-3 135 -2 253 2 262 7 20 13
16 90 -57z m-3146 -927 c58 -11 67 -23 66 -84 -2 -53 -12 -89 -159 -532 -138
-417 -212 -644 -249 -768 -53 -174 -48 -256 21 -340 52 -64 22 -79 -169 -85
-167 -5 -288 4 -314 22 -16 12 -15 18 23 74 23 35 46 84 52 112 7 34 11 294
11 781 0 844 -5 801 90 820 50 10 577 10 628 0z m-1966 -30 l33 -29 6 -764 c6
-822 4 -803 60 -886 43 -64 39 -79 -23 -91 -29 -5 -111 -12 -183 -16 -188 -8
-225 -18 -282 -70 -35 -31 -56 -62 -78 -114 -16 -40 -41 -86 -56 -104 -37 -45
-44 -38 -117 124 -28 62 -101 148 -127 149 -17 1 -68 47 -62 56 6 10 28 21
146 75 231 105 433 347 486 579 11 50 17 119 17 205 0 260 -55 381 -311 690
-118 142 -134 193 -71 218 8 3 131 6 272 6 l258 1 32 -29z m1825 -1273 c-3 -8
-6 -5 -6 6 -1 11 2 17 5 13 3 -3 4 -12 1 -19z m4434 -6 c15 -9 105 -97 200
-194 173 -175 175 -177 277 -224 72 -34 102 -53 102 -66 0 -12 -29 -31 -97
-64 -54 -26 -122 -65 -151 -86 -110 -81 -226 -221 -296 -358 -72 -140 -83
-141 -181 -12 -89 116 -178 207 -275 281 -92 70 -117 85 -250 152 -135 68
-143 78 -82 98 21 7 126 14 247 17 116 3 230 10 255 15 54 12 110 48 132 86
18 32 38 147 38 225 1 88 20 147 50 148 3 0 17 -8 31 -18z m-4444 -34 c-3 -8
-6 -5 -6 6 -1 11 2 17 5 13 3 -3 4 -12 1 -19z m-20 -40 c-3 -8 -6 -5 -6 6 -1
11 2 17 5 13 3 -3 4 -12 1 -19z m2990 -40 c-3 -8 -6 -5 -6 6 -1 11 2 17 5 13
3 -3 4 -12 1 -19z m-3000 -10 c-3 -8 -6 -5 -6 6 -1 11 2 17 5 13 3 -3 4 -12 1
-19z m1767 2 c63 -14 88 -40 132 -139 23 -50 58 -112 78 -138 56 -72 47 -88
-54 -98 -269 -26 -317 -54 -339 -195 -6 -39 -12 -407 -14 -920 -4 -768 -6
-859 -20 -894 -37 -84 -61 -27 -276 644 -29 91 -59 183 -67 205 -7 22 -38 121
-69 220 -31 99 -63 198 -70 220 -14 42 -37 114 -115 367 -56 180 -87 248 -136
302 -19 20 -34 43 -34 50 0 15 68 46 99 46 30 0 106 37 136 67 15 16 47 69 70
118 47 99 77 133 127 145 47 11 505 11 552 0z m1253 -42 c-3 -8 -6 -5 -6 6 -1
11 2 17 5 13 3 -3 4 -12 1 -19z m-3050 -50 c-3 -7 -5 -2 -5 12 0 14 2 19 5 13
2 -7 2 -19 0 -25z m3060 10 c-3 -8 -6 -5 -6 6 -1 11 2 17 5 13 3 -3 4 -12 1
-19z m23 -40 c0 -16 -3 -19 -11 -11 -6 6 -8 16 -5 22 11 17 16 13 16 -11z
m-6701 -232 c36 -19 37 -16 -29 -101 -26 -35 -59 -97 -79 -150 -73 -191 -101
-192 -176 -11 -43 104 -67 145 -121 203 -28 30 -29 36 -10 53 26 21 107 29
247 26 101 -3 144 -8 168 -20z m2810 3 c18 -6 31 -18 31 -28 0 -22 -118 -151
-138 -151 -17 0 -102 101 -102 120 0 6 -4 10 -10 10 -5 0 -10 8 -10 19 0 12
11 22 33 29 44 14 157 15 196 1z m-3571 -170 c140 3 256 3 258 0 2 -4 -15 -35
-37 -69 -40 -63 -40 -63 -25 -99 8 -20 24 -65 35 -101 55 -174 215 -651 231
-685 5 -11 11 -27 13 -35 3 -8 6 1 6 21 1 19 11 70 24 112 20 68 24 74 35 57
22 -36 38 -22 61 53 13 39 34 104 48 142 13 39 35 104 48 145 14 41 29 84 35
95 5 11 14 36 20 55 9 30 9 31 6 5 -4 -27 40 -145 54 -145 6 0 68 181 82 240
5 25 14 49 19 54 5 5 -7 38 -29 77 -20 37 -34 70 -31 73 6 7 949 9 956 3 2 -3
-17 -32 -42 -65 -52 -67 -52 -62 -14 -197 11 -38 27 -95 35 -125 21 -76 84
-277 99 -320 7 -19 22 -69 35 -110 12 -41 25 -82 29 -90 5 -9 12 -31 16 -50 4
-19 11 -41 16 -50 5 -8 15 -42 24 -75 29 -110 44 -160 41 -132 -2 16 0 112 5
213 7 164 10 187 28 210 12 15 21 33 21 40 0 7 6 33 14 56 7 24 26 84 40 133
15 50 31 97 35 105 5 9 12 31 15 50 4 19 14 53 21 75 7 22 23 72 34 110 12 39
31 102 44 142 l22 72 448 5 c247 3 459 9 473 12 40 10 29 -21 -18 -54 -24 -16
-64 -43 -90 -61 -40 -27 -48 -38 -48 -63 0 -16 -6 -44 -14 -61 -27 -62 -98
-283 -123 -384 l-15 -62 41 -57 c23 -32 41 -66 41 -76 0 -24 -59 -199 -72
-216 -8 -9 -19 1 -45 43 -33 52 -53 69 -53 44 0 -6 -6 -25 -14 -42 -15 -34
-67 -189 -105 -317 -13 -41 -29 -91 -36 -110 -7 -19 -16 -54 -20 -78 -6 -40
-4 -47 34 -97 41 -54 50 -79 31 -90 -6 -3 -10 -15 -10 -25 0 -10 -15 -65 -34
-122 -18 -57 -52 -164 -76 -238 -23 -74 -46 -146 -51 -160 -5 -14 -15 -47 -23
-75 -16 -61 -70 -230 -85 -268 l-11 -27 -42 47 c-24 27 -47 51 -53 55 -14 10
-325 10 -325 0 0 -12 47 -75 67 -89 14 -11 -5 -13 -105 -13 -80 0 -122 4 -122
11 0 11 -48 79 -65 91 -5 4 -43 8 -82 8 -72 0 -73 0 -88 -32 -31 -65 -40 -78
-50 -78 -10 0 -55 124 -55 150 0 7 -6 26 -14 43 -8 18 -20 56 -26 85 -7 28
-16 55 -21 58 -5 3 -9 14 -9 25 0 11 4 18 8 15 5 -3 19 6 31 20 12 14 26 22
31 19 6 -3 10 -2 10 3 0 18 -42 148 -56 174 -8 14 -14 33 -14 42 0 27 -13 18
-45 -28 l-29 -43 -16 36 c-9 20 -33 83 -54 141 -54 150 -69 184 -83 193 -10 6
-13 58 -14 210 l-1 202 -19 -40 c-10 -22 -19 -48 -19 -58 0 -11 -6 -33 -14
-50 -8 -18 -19 -52 -26 -77 -7 -25 -19 -72 -28 -104 l-15 -59 48 -45 c53 -51
51 -31 15 -172 -6 -25 -16 -54 -20 -65 -42 -99 -50 -119 -50 -131 0 -23 -10
-17 -60 37 l-47 51 -7 -37 c-4 -21 -12 -45 -17 -54 -9 -16 -50 -134 -95 -276
-14 -44 -32 -96 -41 -116 l-15 -37 51 -53 c28 -30 51 -57 51 -61 0 -10 -69
-10 -228 -1 -67 3 -122 10 -122 15 0 5 -19 28 -42 51 l-41 42 -183 3 -182 3
-32 -55 c-17 -31 -35 -56 -39 -56 -4 0 -15 26 -24 58 -78 267 -140 487 -157
557 -6 22 -14 49 -19 60 -5 11 -14 38 -20 60 -23 89 -41 151 -50 170 -5 11
-14 38 -19 60 -6 22 -24 85 -41 139 -33 107 -40 155 -18 139 6 -6 27 -15 45
-21 l34 -12 -7 43 c-7 41 -14 68 -55 195 -11 34 -20 69 -20 77 0 8 -4 23 -9
33 -5 9 -21 58 -36 107 -15 50 -30 101 -35 115 -5 14 -18 59 -30 100 -36 124
-61 204 -70 220 -4 9 -11 31 -15 50 -4 19 -11 41 -15 50 -15 28 -75 229 -72
241 1 6 -103 99 -112 99 -2 0 -7 -8 -10 -17 -3 -13 -4 -12 -3 3 1 11 -4 28
-11 37 -8 9 -12 20 -9 24 3 4 110 5 239 2 128 -3 347 -3 486 0z m5122 -3 c0
-13 -26 -50 -62 -90 -23 -25 -23 -22 6 -103 14 -37 38 -113 55 -168 69 -220
113 -351 124 -366 7 -8 42 -29 78 -46 l66 -30 36 -114 c20 -63 41 -132 47
-154 12 -47 13 -85 2 -69 -8 13 -86 54 -102 54 -12 0 -14 -47 -1 -54 5 -3 12
-22 16 -42 6 -32 17 -64 48 -131 5 -12 14 -20 19 -17 5 3 26 -3 47 -15 22 -11
42 -17 45 -14 7 7 41 -70 56 -128 6 -23 15 -49 20 -58 4 -9 25 -70 45 -136 21
-66 46 -145 55 -175 10 -30 21 -76 25 -102 l7 -47 -61 32 c-33 18 -62 37 -64
42 -2 6 -2 -3 1 -20 2 -16 8 -34 12 -40 4 -5 12 -30 18 -55 6 -25 20 -74 31
-110 57 -190 83 -290 78 -304 -5 -13 -25 -16 -117 -16 -126 0 -126 2 -27 -73
l51 -37 -125 0 -124 0 -60 55 -59 55 -128 0 c-70 0 -128 -3 -128 -7 0 -5 -16
-25 -35 -47 -19 -21 -35 -42 -35 -47 0 -5 -6 -9 -13 -9 -7 0 -23 38 -39 93
-14 50 -38 126 -53 167 l-28 75 37 55 c20 30 36 58 36 62 0 5 -30 7 -67 7 -72
-2 -218 -15 -193 -18 8 0 24 -20 34 -44 11 -23 22 -45 24 -49 2 -5 -16 -8 -41
-8 -42 0 -44 1 -55 39 -7 21 -12 45 -12 53 0 9 -13 18 -31 22 -71 14 -285 1
-255 -16 9 -5 16 -17 16 -27 0 -9 7 -26 15 -37 8 -10 15 -22 15 -26 0 -5 -39
-8 -86 -8 -64 0 -85 3 -81 13 2 6 -2 27 -10 45 -7 18 -11 37 -9 41 6 9 -148
21 -276 21 -48 0 -90 -4 -93 -10 -3 -5 -3 -10 2 -10 4 0 22 -23 38 -50 17 -27
33 -50 38 -50 10 0 9 -30 -2 -30 -5 0 -12 -19 -16 -42 l-7 -41 -47 52 -47 52
-13 -28 c-8 -15 -20 -46 -27 -68 -7 -22 -20 -58 -28 -80 l-14 -40 -90 -5 c-50
-3 -94 -9 -98 -13 -4 -4 2 -27 13 -51 l21 -43 -56 -5 c-31 -3 -95 -2 -142 2
-47 4 -71 8 -54 8 42 3 44 8 26 51 l-16 38 -111 7 c-201 11 -205 11 -266 -34
-30 -21 -62 -47 -71 -56 -10 -10 -21 -14 -25 -11 -5 6 45 177 77 262 5 11 27
81 50 155 23 74 48 151 56 170 7 19 23 67 34 105 12 39 26 79 31 90 5 11 18
49 30 85 11 36 29 88 39 115 18 50 30 88 70 225 38 127 51 167 85 242 l16 36
42 -45 41 -44 17 48 c9 26 25 74 35 107 l18 59 -43 39 -42 40 10 50 c6 27 24
89 40 136 15 48 61 188 101 312 39 124 78 241 85 260 7 19 21 56 30 83 17 49
43 63 52 27 3 -11 9 -20 13 -20 4 0 17 -16 29 -35 l20 -35 78 0 c43 0 96 7
118 14 38 14 39 15 15 21 -14 3 -30 16 -35 28 -7 15 -25 26 -55 34 -37 9 14
12 295 13 289 2 780 12 908 18 25 1 37 -2 37 -12z m1310 3 c140 -1 525 -1 855
0 609 2 687 -1 785 -36 97 -34 183 -75 208 -100 11 -11 10 -13 -5 -14 -10 0
-42 -8 -71 -17 l-53 -17 38 -20 c21 -11 63 -37 94 -58 54 -36 73 -52 153 -125
33 -30 35 -30 72 -17 22 8 38 19 36 26 -10 39 84 -87 119 -161 21 -43 53 -146
69 -220 21 -98 1 -373 -30 -404 -6 -6 -10 -19 -10 -31 0 -16 -2 -17 -9 -6 -5
8 -24 22 -42 30 l-33 16 -39 -79 c-22 -44 -44 -84 -48 -90 -5 -6 -29 -38 -53
-71 -45 -61 -130 -145 -147 -145 -5 0 -9 -5 -9 -10 0 -6 -10 -15 -22 -21 -55
-24 -142 -77 -146 -88 -3 -8 28 -11 100 -12 57 0 189 -4 293 -8 l190 -8 65
-61 65 -62 165 0 165 1 -25 20 c-14 12 -42 36 -63 55 -21 19 -44 34 -50 34 -7
0 -6 4 3 10 9 6 136 10 310 9 325 0 286 6 392 -59 13 -8 20 -5 32 12 35 50 23
78 -87 201 -49 54 -73 75 -81 67 -5 -5 -35 -10 -66 -10 -54 0 -56 1 -105 57
-27 31 -65 72 -83 92 -18 20 -47 55 -64 79 -17 23 -35 42 -40 42 -4 0 -8 7 -8
15 0 8 -4 15 -8 15 -5 0 -24 21 -43 48 -18 26 -38 53 -44 60 -26 33 -31 39
-43 57 -76 120 -121 281 -108 386 l7 56 55 -14 c31 -8 61 -12 69 -10 7 3 15
22 17 42 4 32 1 38 -21 46 -14 5 -38 16 -52 24 -14 8 -29 11 -33 7 -13 -13 6
52 28 98 39 80 78 134 145 201 143 143 297 185 588 162 45 -3 80 -10 77 -14
-6 -10 43 -88 59 -95 7 -2 90 -3 185 -2 l173 3 -33 47 c-18 26 -40 48 -48 49
-8 0 -2 5 14 10 34 10 1032 14 1029 4 -1 -4 -20 -27 -42 -53 -23 -25 -41 -49
-41 -53 0 -3 21 -26 48 -50 l47 -44 4 -88 c4 -122 1 -127 -55 -67 -26 28 -51
50 -55 50 -5 0 -9 -84 -9 -187 0 -104 -4 -194 -8 -200 -6 -10 -116 -12 -493
-11 -361 2 -493 -1 -519 -10 -52 -18 -84 -70 -78 -127 5 -37 16 -57 78 -127
109 -125 189 -215 246 -276 l51 -55 54 11 54 10 50 -52 c65 -67 147 -163 159
-184 5 -10 12 -19 16 -22 11 -9 48 -104 64 -165 20 -81 30 -246 18 -320 -22
-135 -86 -259 -178 -346 -55 -52 -163 -129 -181 -129 -6 0 -22 13 -35 28 l-24
29 -90 -18 c-70 -15 -136 -19 -314 -19 l-224 0 39 -41 c22 -22 54 -47 70 -54
26 -12 -7 -13 -248 -14 -165 -1 -276 3 -273 8 4 5 -15 30 -41 55 l-48 46 -242
0 c-139 0 -243 -4 -243 -9 0 -5 22 -29 49 -54 l50 -44 -91 -7 c-118 -8 -687
-8 -767 0 l-61 7 0 58 0 58 -57 27 c-36 17 -88 58 -141 108 -46 45 -87 82 -90
83 -4 2 -20 -17 -37 -42 -16 -24 -33 -45 -36 -45 -7 0 -85 83 -184 195 -44 50
-84 95 -90 101 -15 16 -53 60 -110 128 -74 88 -91 106 -102 106 -12 0 -20 19
-67 165 -41 123 -39 118 -26 110 15 -9 12 -2 -14 34 -13 18 -26 29 -28 24 -1
-4 -2 -131 0 -281 2 -208 6 -272 15 -270 7 1 31 -9 54 -22 l43 -25 0 -208 c0
-164 -3 -207 -12 -201 -7 4 -29 20 -49 36 -20 15 -39 28 -42 28 -3 0 -8 -13
-12 -30 l-7 -30 -103 0 c-57 0 -106 -4 -109 -9 -3 -5 14 -29 37 -55 l43 -46
-183 0 c-104 0 -182 4 -179 9 9 15 -54 86 -82 92 -15 4 -61 7 -102 8 l-76 1
-54 -55 c-30 -30 -58 -55 -62 -55 -4 0 -8 206 -8 457 l0 457 51 -50 c28 -27
54 -58 59 -69 5 -12 9 92 9 261 l1 280 -60 57 -60 56 0 345 c0 190 3 346 8
346 4 0 30 -24 58 -53 l51 -53 7 90 c3 49 6 146 6 216 l0 127 -60 57 c-61 58
-75 82 -42 72 9 -3 132 -6 272 -7z m-7113 -111 c-3 -8 -6 -5 -6 6 -1 11 2 17
5 13 3 -3 4 -12 1 -19z m10 -50 c-3 -7 -5 -2 -5 12 0 14 2 19 5 13 2 -7 2 -19
0 -25z m10 -50 c-3 -7 -5 -2 -5 12 0 14 2 19 5 13 2 -7 2 -19 0 -25z m20 -40
c-3 -8 -6 -5 -6 6 -1 11 2 17 5 13 3 -3 4 -12 1 -19z m10 -50 c-3 -8 -6 -5 -6
6 -1 11 2 17 5 13 3 -3 4 -12 1 -19z m20 -40 c-3 -8 -6 -5 -6 6 -1 11 2 17 5
13 3 -3 4 -12 1 -19z m9575 -760 c8 -7 42 -47 74 -88 32 -41 67 -84 77 -95 55
-60 137 -179 137 -199 0 -48 -32 -56 -234 -56 -243 0 -268 12 -231 111 10 24
38 105 64 180 26 74 51 140 55 147 9 16 38 15 58 0z m-285 -140 c-3 -8 -6 -5
-6 6 -1 11 2 17 5 13 3 -3 4 -12 1 -19z m-2910 -800 c-3 -8 -6 -5 -6 6 -1 11
2 17 5 13 3 -3 4 -12 1 -19z"/>
<path d="M6996 5557 c-10 -34 -34 -109 -53 -167 -81 -253 -89 -285 -74 -276 5
3 22 -9 37 -26 15 -18 31 -32 36 -30 13 3 10 -19 -12 -81 -11 -31 -20 -65 -20
-76 0 -11 -4 -22 -9 -26 -5 -3 -13 -19 -16 -36 -11 -47 -44 -118 -45 -94 0 11
-14 35 -30 54 -17 18 -31 45 -31 60 -1 21 -2 22 -6 6 -3 -11 -10 -31 -16 -45
-23 -57 -177 -504 -177 -516 0 -13 28 2 91 51 l71 55 132 -1 c157 -1 251 -10
252 -24 0 -5 6 -23 12 -38 15 -36 15 -44 0 -50 -7 -3 21 -6 63 -6 42 -1 111
-4 154 -8 53 -4 77 -3 74 4 -2 6 -35 35 -73 65 -74 57 -77 63 -123 223 -48
165 -65 221 -73 240 -9 21 -61 179 -99 300 -12 39 -21 76 -21 83 0 6 -4 12
-10 12 -6 0 -11 79 -12 204 l-3 204 -19 -61z m52 -953 c3 -33 -14 -49 -42 -38
-37 14 -22 78 17 72 16 -2 23 -11 25 -34z"/>
<path d="M5721 3894 c0 -11 3 -14 6 -6 3 7 2 16 -1 19 -3 4 -6 -2 -5 -13z"/>
<path d="M10160 5920 c17 -22 37 -40 43 -41 45 -3 193 -5 200 -2 4 3 -8 22
-25 43 l-33 40 -108 0 -109 0 32 -40z"/>
<path d="M9640 5318 c0 -25 3 -65 6 -90 l6 -45 47 5 c25 3 49 10 53 16 4 6 8
-81 8 -192 l0 -204 -55 4 -55 3 0 -60 0 -60 56 58 55 58 274 -2 c306 -2 303
-3 346 68 20 32 23 51 24 138 l2 100 46 35 c25 19 46 38 46 41 1 4 -23 32 -51
62 -90 93 -95 94 -478 103 l-330 7 0 -45z m544 -262 c14 -9 29 -28 32 -43 6
-21 2 -31 -20 -50 -24 -20 -38 -23 -112 -23 -90 0 -117 8 -134 41 -16 28 -3
57 33 80 26 17 45 20 104 16 44 -2 82 -10 97 -21z"/>
<path d="M11655 4238 c53 -56 55 -58 90 -58 l30 0 -54 50 c-35 32 -64 50 -80
50 -24 0 -24 -1 14 -42z"/>
<path d="M902 3001 c10 -27 81 -91 100 -91 19 0 16 7 -27 50 -43 44 -83 66
-73 41z"/>
<path d="M5466 2625 c-10 -33 -23 -71 -28 -85 -6 -14 -23 -65 -38 -115 -16
-49 -34 -103 -39 -120 -6 -16 -27 -82 -47 -145 -19 -63 -41 -132 -49 -153
l-14 -38 41 -37 c22 -20 45 -40 51 -44 7 -4 4 -26 -7 -65 -42 -139 -59 -190
-72 -220 -8 -17 -14 -36 -14 -42 0 -20 -12 -12 -52 34 -22 25 -43 45 -48 45
-8 0 -42 -83 -79 -197 -21 -62 -26 -93 -16 -93 6 0 110 76 137 100 13 12 41
14 137 12 l122 -3 27 -60 27 -59 77 0 c43 0 78 2 78 4 0 2 -11 27 -25 54 -14
28 -25 53 -25 56 0 3 35 6 78 6 64 0 84 -4 103 -20 76 -62 119 -93 125 -87 5
4 -6 44 -41 152 -7 22 -30 94 -52 160 -21 66 -41 121 -45 123 -5 2 -8 11 -8
20 0 8 -3 13 -6 10 -3 -4 -32 3 -64 14 -55 18 -60 22 -76 66 -10 26 -21 51
-26 56 -4 6 -8 18 -8 27 0 9 -9 45 -20 79 -11 34 -20 66 -20 70 0 5 19 -1 43
-12 98 -48 97 -48 97 -35 0 39 -27 67 -82 86 -32 11 -58 17 -58 15 0 -3 -7 1
-15 10 -8 8 -15 21 -15 28 0 7 -7 23 -15 35 -11 16 -15 64 -17 224 l-3 204
-19 -60z m54 -924 c15 -37 10 -71 -12 -85 -40 -25 -70 30 -49 87 14 36 45 35
61 -2z"/>
<path d="M7610 3005 c0 -2 19 -22 42 -45 41 -39 43 -40 115 -40 40 0 73 4 73
9 0 5 -19 26 -42 45 -39 34 -45 36 -115 36 -40 0 -73 -2 -73 -5z"/>
<path d="M8120 2343 c0 -103 3 -110 58 -112 25 -1 48 -4 51 -6 8 -9 12 -270 4
-281 -5 -8 -24 -9 -56 -4 -57 8 -59 4 -55 -115 l3 -79 56 53 56 53 218 -1
c120 -1 222 -4 226 -7 4 -2 33 3 65 11 119 31 140 64 138 222 l-2 113 37 10
c63 17 67 23 42 64 -29 47 -97 102 -147 119 -28 10 -131 16 -366 21 l-328 8 0
-69z m540 -241 c46 -22 52 -61 15 -90 -58 -46 -228 -37 -255 13 -17 32 1 70
39 84 45 17 162 13 201 -7z"/>
<path d="M11850 1283 c1 -25 27 -38 65 -32 38 5 39 6 15 16 -39 16 -80 24 -80
16z"/>
<path d="M12042 598 c3 -7 14 -14 26 -16 20 -3 22 -9 22 -63 0 -38 4 -58 10
-54 6 3 10 31 10 61 0 51 1 54 25 54 16 0 25 6 25 15 0 12 -13 15 -61 15 -44
0 -60 -3 -57 -12z"/>
<path d="M12187 603 c-11 -10 -8 -133 3 -133 6 0 10 18 10 40 0 52 16 52 25
-1 5 -30 11 -39 23 -37 10 2 18 15 20 30 2 15 10 32 19 39 13 11 15 9 13 -16
-3 -44 -1 -55 10 -55 11 0 14 98 4 124 -14 37 -54 -4 -54 -56 0 -17 -2 -18
-15 -8 -8 7 -15 21 -15 30 0 41 -23 63 -43 43z"/>
</g>
</svg>
